<svg width="14" height="16" viewBox="0 0 14 16" fill="none" xmlns="http://www.w3.org/2000/svg">
<path d="M7 16C8.10457 16 9 15.1046 9 14H5C5 15.1046 5.89543 16 7 16Z" fill="black"/>
<path fill-rule="evenodd" clip-rule="evenodd" d="M7 1.91825L6.20281 2.07925C4.37552 2.44829 3.00002 4.06463 3.00002 6C3.00002 6.62782 2.86566 8.19725 2.54116 9.74216C2.38006 10.5091 2.16454 11.3076 1.87809 12H12.1219C11.8355 11.3076 11.62 10.5091 11.4589 9.74216C11.1344 8.19724 11 6.62782 11 6C11 4.06462 9.6245 2.44827 7.7972 2.07924L7 1.91825ZM13.2193 12C13.4426 12.4474 13.7015 12.801 14 13H0C0.298527 12.801 0.557447 12.4474 0.7807 12C1.67922 10.1994 2.00002 6.87916 2.00002 6C2.00002 3.57934 3.7202 1.56045 6.00484 1.09904C6.00164 1.06646 6 1.03342 6 1C6 0.447715 6.44772 0 7 0C7.55228 0 8 0.447715 8 1C8 1.03342 7.99836 1.06646 7.99516 1.09903C10.2798 1.56042 12 3.57932 12 6C12 6.87916 12.3208 10.1994 13.2193 12Z" fill="black"/>
</svg>
