<svg width="14" height="14" viewBox="0 0 14 14" fill="none" xmlns="http://www.w3.org/2000/svg">
<path fill-rule="evenodd" clip-rule="evenodd" d="M6.64645 0.146447C6.84171 -0.0488155 7.15829 -0.0488155 7.35355 0.146447L13.3536 6.14645C13.4473 6.24021 13.5 6.36739 13.5 6.5V13.5C13.5 13.7761 13.2761 14 13 14H8.5C8.22386 14 8 13.7761 8 13.5V9.5H6V13.5C6 13.7761 5.77614 14 5.5 14H1C0.723858 14 0.5 13.7761 0.5 13.5V6.5C0.5 6.36739 0.552678 6.24021 0.646447 6.14645L6.64645 0.146447ZM1.5 6.70711V13H5V9C5 8.72386 5.22386 8.5 5.5 8.5H8.5C8.77614 8.5 9 8.72386 9 9V13H12.5V6.70711L7 1.20711L1.5 6.70711Z" fill="black"/>
</svg>
