
<svg width="845" height="283" viewBox="0 0 845 283" fill="none" xmlns="http://www.w3.org/2000/svg">
<path d="M635.703 189.276L670.307 204.307L670.865 203.751C669.397 200.35 667.232 197.382 666.344 193.73C665.206 189.06 665.965 184.475 665.725 179.813C665.122 168.052 665.284 156.492 665.284 144.741C665.284 136.083 666.032 133.249 674.214 129.355C675.872 128.566 677.864 127.061 679.795 127.45C684.216 128.34 688.418 134.596 690.757 138.06C700.647 152.702 697.611 174.195 679.795 180.369C686.348 184.839 691.856 192.079 695.244 199.297C700.195 209.853 703.627 223.456 714.399 229.915C714.806 225.338 712.34 220.472 711.424 215.998C710.554 211.759 710.838 206.965 710.542 202.637C709.203 183.132 714.014 159.099 705.441 140.844C701.59 132.63 693.821 127.867 688.725 120.803C703.242 114.349 705.006 98.3631 710.202 85.7311C711.402 82.8196 714.131 81.2163 715.515 78.494L696.539 64.9747L687.051 57.3396C691.644 74.0956 696.745 96.7297 683.657 111.339C680.019 115.401 676.48 118.899 671.423 121.186C670.045 121.808 667.606 123.075 666.177 121.957C664.681 120.783 665.284 117.445 665.284 115.793C665.284 109.79 664.62 103.948 665.189 97.9784C666.45 84.7802 663.939 71.2119 665.189 57.8963C665.518 54.3852 663.314 47.721 666.177 44.8713C667.991 43.0665 672.389 44.1253 674.772 43.4222C661.126 33.6344 649.026 15.5981 642.959 0C639.56 1.12541 640.174 8.02013 640.168 11.1339V46.2057C640.168 75.7256 640.727 105.327 640.727 134.72V164.782C640.727 169.783 641.474 175.475 640.347 180.369C639.538 183.873 636.887 186.057 635.703 189.276ZM538.032 6.12365C537.972 13.2228 536.149 21.4355 532.828 27.8347C529.547 34.1582 523.227 38.938 524.182 46.7624C524.823 52.0076 530.177 55.2876 533.399 59.0091C534.274 60.0195 535.711 62.6694 537.356 62.3938C538.863 62.1411 539.377 59.0164 540.002 57.8963C542.452 53.5073 547.28 49.9695 548.636 45.0923C546.197 44.5061 543.406 44.5479 541.86 42.2482C539.567 38.8373 541.073 33.2826 541.33 29.5048C541.855 21.8595 541.676 13.0264 538.032 6.12365ZM815.419 84.6177C806.143 76.7516 794.953 77.6517 783.606 77.929C770.786 78.2424 757.922 77.9374 745.096 77.9374C737.673 77.9374 728.213 76.3953 721.096 78.4941C726.951 94.0136 724.998 110.947 725.003 127.483V208.761C725.003 212.633 725.69 217.269 724.557 221.008C723.904 223.169 720.706 225.901 721.052 228.127C721.342 230.013 724.68 230.991 726.12 231.751C730.819 234.227 735.284 236.847 739.515 240.067C753.557 250.754 770.954 262.581 776.909 280.018C780.219 278.986 781.977 274.377 783.93 271.667C788.484 265.35 793.547 259.221 799.044 253.698C805.764 246.943 813.639 240.652 821.559 235.342C824.104 233.638 830.757 231.919 832.074 229.141C833.045 227.095 829.646 222.63 829.082 220.451C827.391 213.913 828.256 206.559 828.256 199.854C828.256 175.258 829.869 150.343 828.792 125.813C828.424 117.366 824.009 108.601 824.64 100.205C824.936 96.2031 826.554 92.0446 829.981 89.702C831.432 88.7122 833.865 88.4389 834.937 87.0104C836.606 84.7942 835.573 79.6114 836.489 76.824C838.353 71.1502 843.471 66.8452 845 61.2365C832.554 62.3204 819.014 72.5196 815.419 84.6177ZM404.082 84.6177C401.425 82.7372 399.316 80.3039 396.268 78.984C388.277 75.5219 380.159 76.058 371.711 75.6889C360.411 75.1951 348.978 74.5972 337.665 74.5972C339.45 77.3735 342.73 78.4301 343.886 81.8343C345.31 86.0279 344.2 91.3749 344.384 95.7517C345.04 111.251 341.575 130.128 347.614 144.741C357.163 167.846 396.645 170.087 410.169 150.308C416.28 141.37 419.158 130.977 417.218 120.246C416.034 113.692 412.713 106.239 412.645 99.6485C412.582 93.4636 418.393 93.2577 419.834 88.9049C420.664 86.3975 418.598 81.8493 418.593 79.0508C418.583 73.0847 420.48 69.7696 423.058 64.5767C412.416 65.6406 406.697 75.425 404.082 84.6177ZM538.59 67.3602C537.402 69.7167 535.846 72.5274 533.935 74.4703C529.837 78.6377 521.546 77.3807 516.265 77.3807L520.54 86.2878L520.73 104.659L521.266 140.844L521.288 157.545L521.862 164.418L527.986 166.216L543.613 169.235L540.002 161.998L539.126 134.164L538.59 67.3602ZM502.87 68.4736C492.459 84.7669 462.561 68.3488 458.22 90.7414C457.871 87.9852 457.158 84.8749 455.755 82.4127C450.737 73.613 437.212 75.7106 428.639 75.7106C430.189 78.0499 432.454 80.2198 433.299 82.9477C435.588 90.3428 433.573 100.824 433.665 108.556C433.79 119.112 435.186 129.732 434.721 140.287C434.36 148.46 432.077 159.861 435.337 167.565C435.337 167.565 438.301 165.071 443.151 163.535C448 162 467.15 163.112 467.15 163.112C465.577 159.952 462.359 158.218 461.063 154.761C458.611 148.219 459.244 141.032 459.33 134.164C459.447 124.948 458.745 115.743 462.079 106.886C464.592 100.212 470.235 89.3246 478.871 91.2981C477.506 103.681 479.373 116.711 479.428 129.153C479.483 141.466 477.676 155.543 480.545 167.565C483.487 166.437 485.78 164.214 488.917 163.491C497.132 161.597 505.427 164.257 513.474 165.339C513.474 165.339 506.249 160.25 505.372 155.875C504.495 151.5 503.428 95.7517 503.428 95.7517V76.2673L502.87 68.4736ZM4.82814e-05 70.1437C1.30831 72.1182 3.45862 72.3198 5.34443 73.6091C8.61141 75.8426 11.3616 79.328 12.9041 82.9477C17.0501 92.6759 15.5278 104.927 16.2356 115.236C17.9976 140.9 18.9689 167.415 17.838 193.173C17.4664 201.639 17.7437 211.027 16.1322 219.338C15.6362 221.896 11.3144 226.645 11.97 228.792C12.7226 231.255 18.5375 233.004 20.6507 234.213C28.2927 238.583 35.5263 243.746 42.4175 249.214C50.3071 255.473 58.2063 263.448 64.0202 271.667C65.8269 274.222 68.9485 282.11 72.0494 282.939C73.927 283.442 75.3379 280.688 76.1812 279.461C78.9713 275.405 82.0348 271.508 85.2418 267.771C94.3766 257.125 106.336 247.433 118.322 240.128C123.047 237.249 134.761 233.437 137.299 228.802C126.636 224.848 129.26 213.964 128.905 204.864C128.492 194.283 129.48 183.688 129.48 173.132C129.48 166.328 128.082 159.775 130.383 153.091C131.855 148.818 135.379 146.317 137.299 142.514L103.811 143.071L83.1606 142.514C84.7451 139.036 86.2442 136.148 90.4162 135.834C72.2191 132.324 77.3382 107.522 71.4399 95.7517H70.8818C69.8113 99.0378 71.3038 101.896 71.4293 105.215C71.6682 111.506 71.4399 117.848 71.4399 124.143C71.4399 150.294 73.6724 176.409 73.6724 202.637C73.6724 210.627 73.1299 218.563 73.1143 226.575C73.1092 229.207 71.4951 233.499 74.2305 234.926C74.2305 217.802 82.2468 196.554 95.4392 185.38V184.823C81.5375 184.411 83.1605 164.083 83.1605 154.761L105.485 155.318C98.5329 164.446 101.006 182.671 101.193 193.73C101.253 197.309 102.324 201.388 101.124 204.864C99.4683 209.66 96.3853 211.426 92.6486 214.328C101.006 218.023 110.303 220.273 109.95 231.585C101.928 229.563 90.3056 235.934 83.1605 239.087C80.8432 240.11 77.8728 242.333 75.3468 242.543C71.7692 242.841 64.8094 238.262 61.3937 236.768C54.1319 233.591 45.8973 231.59 37.9524 231.585C40.4026 223.929 48.0054 217.678 55.2543 214.885V213.771C43.0381 206.685 46.3288 191.133 46.3243 179.256C46.3165 159.372 45.2081 139.534 45.2081 119.69C45.2081 107.923 46.8958 96.9541 37.9524 87.9579H104.927L85.9511 101.875C107.773 99.1247 121.611 120.792 127.81 138.617H128.369C128.369 122.351 125.988 106.467 128.132 90.1847C129.282 81.4485 128.771 73.9036 139.531 71.8138L127.252 71.257L99.9042 71.2486L4.82814e-05 70.1437ZM549.194 77.3806C550.495 80.7587 553.531 83.3217 554.496 86.8445C555.864 91.8235 554.776 98.3942 554.776 103.545C554.776 113.555 555.334 123.565 555.334 133.607C555.334 144.709 553.397 156.776 561.177 165.873C565.614 171.063 573.043 172.343 579.333 173.955C592.75 177.395 612.748 179.209 621.75 190.947C625.322 189.763 623.425 183.481 623.425 180.369C623.425 169.4 623.983 158.461 623.983 147.524C621.561 149.178 621.17 152.784 619.87 155.318C617.989 158.976 614.791 162.573 611.146 164.55C600.603 170.27 583.675 166.516 580.471 153.648C578.937 147.477 580.287 140.941 580.444 134.72C580.65 126.147 579.913 117.651 579.908 109.112C579.908 103.067 581.219 95.6302 578.217 90.1847C589.34 90.1847 602.607 87.6695 611.609 95.5311C616.538 99.8361 618.854 109.498 623.983 112.452V70.7003C623.983 70.7003 621 75.5 615.611 77.3845C610 78.5 594.96 77.9373 594.96 77.9373L549.194 77.3806ZM145.67 230.472C151.852 219.919 161.64 215.536 172.46 210.522C184.357 205.008 196.295 200.224 208.739 196.097C215.18 193.96 221.038 190.247 227.715 188.72L219.901 180.369V179.813V179.256C222.325 177.143 221.017 170.085 221.017 167.009C221.017 154.762 220.459 142.54 220.459 130.267C217.082 132.235 215.831 141.575 213.567 145.297C210.08 151.033 203.57 156.559 198.134 160.47C195.576 162.309 190.815 163.386 189.762 166.452C192.694 166.428 198.203 163.756 200.747 164.964C203.502 166.273 203.528 178.507 201.704 180.571C199.532 183.029 194.939 184.24 191.995 185.506C185.823 188.161 179.846 191.304 173.577 193.73C173.577 168.759 171.263 143.413 172.968 118.576C173.489 111.005 170.652 99.3078 175.964 92.9904C183.138 84.4596 192.906 86.6446 202.599 86.8445C201.54 89.6524 199.661 92.1186 199.361 95.1949C198.515 103.888 201.626 113.319 198.967 121.916C196.247 130.71 189.144 132.916 183.246 139.268C175.151 147.987 175.748 159.809 181.415 169.792C183.419 173.322 186.866 177.576 190.879 178.699C188.644 173.074 183.189 169.215 183.165 162.555C183.13 152.611 192.052 146.389 199.809 142.035C208.29 137.274 217.572 130.733 220.119 120.803C222.257 112.466 220.983 102.013 220.287 93.5248C219.956 89.4971 218.583 83.3651 220.332 79.608C221.667 76.7416 224.595 75.121 227.157 73.4838C224.245 72.2652 220.246 72.9271 217.11 72.9271H197.018C184.2 72.9271 163.21 67.9875 152.934 76.991C141.765 86.7771 145.67 105.827 145.67 119.133C145.67 156.244 148.597 193.489 145.67 230.472ZM228.831 72.9271C231.062 76.4359 235.116 78.1795 236.584 82.3909C239.517 90.8048 236.837 102.497 237.225 111.339C238.434 138.884 237.761 166.199 237.761 193.73L248 184.823L272.365 175.916C263.015 171.47 264.362 162.075 264.521 153.091C264.802 137.24 261.613 121.002 264.551 105.215C269.883 111.64 271.986 120.648 273.98 128.597C276.229 137.558 279.156 146.653 280.084 155.875C280.774 162.729 280.547 171.134 282.969 177.586C286.462 166.568 286.035 152.929 287.591 141.401C289.404 127.979 294.598 116.764 300.271 104.659C302.424 113.681 300.694 123.903 300.293 133.05C299.87 142.694 302.594 154.359 300.559 163.668C299.964 166.393 297.809 168.298 296.922 170.905C304.515 170.749 312.134 167.021 319.805 169.296C323.285 170.328 325.528 173.319 328.735 174.802C328.735 153.272 327.619 131.744 327.619 110.226C327.619 101.918 325.572 90.8944 328.068 82.9476C329.117 79.6035 332.273 77.659 333.758 74.5972C326.018 72.3153 315.6 74.0405 307.526 74.0405C304.599 74.0405 300.292 73.2594 297.64 74.6885C289.721 78.9544 284.388 92.4081 282.969 100.762C280.576 94.4356 279.858 87.4479 275.754 81.8342C265.72 68.11 243.789 72.9271 228.831 72.9271ZM368.362 87.9579C374.888 87.9579 381.705 87.1545 387.33 91.1867C391.352 94.0704 393.453 99.0144 394.966 103.545C398.992 115.602 398.995 133.046 392.1 144.184C388.149 150.566 377.786 154.558 372.661 146.965C369.946 142.944 370.595 134.99 370.594 130.267C370.593 117.416 374.314 99.7047 368.362 87.9579ZM795.327 213.771C800.59 215.286 805.038 218.949 808.342 223.235C809.386 224.587 811.546 227.232 810.357 229.045C809.102 230.958 803.587 231.693 801.466 232.379C793.731 234.878 785.364 241.117 777.467 242.297C774.883 242.683 771.372 240.566 769.095 239.502C763.352 236.815 757.832 233.962 751.793 231.957C749.996 231.359 744.365 230.662 744.398 228.171C744.471 222.021 755.203 216.416 759.607 213.771V213.214C747.412 205.177 750.671 191.649 750.677 178.699C750.683 159.402 751.235 140.145 751.235 120.803C751.235 111.311 752.441 101.762 750.677 92.4114C763.726 89.8868 784.974 88.0085 795.165 98.1393C804.743 107.662 803.699 119.519 803.699 131.937C803.699 146.946 802.957 162.032 802.588 177.029C802.393 185.017 804.039 194.328 801.935 202.08C800.668 206.748 797.275 209.596 795.327 213.771Z" fill="#1F2937"/>
</svg>
