<svg width="48" height="48" viewBox="0 0 48 48" fill="none" xmlns="http://www.w3.org/2000/svg">
<rect width="48" height="48" rx="5" fill="#1F2937"/>
<path fill-rule="evenodd" clip-rule="evenodd" d="M6 34C6 35.1046 6.89543 36 8 36H40C41.1046 36 42 35.1046 42 34V34C42 32.8954 41.1046 32 40 32H8C6.89543 32 6 32.8954 6 34V34ZM6 24C6 25.1046 6.89543 26 8 26H40C41.1046 26 42 25.1046 42 24V24C42 22.8954 41.1046 22 40 22H8C6.89543 22 6 22.8954 6 24V24ZM8 12C6.89543 12 6 12.8954 6 14V14C6 15.1046 6.89543 16 8 16H40C41.1046 16 42 15.1046 42 14V14C42 12.8954 41.1046 12 40 12H8Z" fill="#D1D5DB"/>
</svg>
